<svg viewBox="0 0 41 24" fill="none" xmlns="http://www.w3.org/2000/svg">
<path d="M1.12136 22.3345C-0.0502174 21.1629 -0.0502174 19.2634 1.12136 18.0919L18.0919 1.12129C19.2635 -0.0502782 21.163 -0.0502787 22.3346 1.12129C23.5061 2.29287 23.5061 4.19236 22.3346 5.36393L5.364 22.3345C4.19242 23.5061 2.29293 23.5061 1.12136 22.3345Z" fill="white"/>
<path d="M18.0398 1.24691C19.2114 0.0753386 21.1109 0.0753386 22.2825 1.24691L39.2531 18.2175C40.4246 19.389 40.4246 21.2885 39.2531 22.4601C38.0815 23.6317 36.182 23.6317 35.0104 22.4601L18.0398 5.48955C16.8683 4.31798 16.8683 2.41848 18.0398 1.24691Z" fill="white"/>
</svg>
