<svg viewBox="0 0 804 199" xmlns="http://www.w3.org/2000/svg">
<path d="M55 2.60001C69.8 2.60001 82.7334 5.53333 93.8 11.4C104.867 17.2667 113.4 25.5333 119.4 36.2C125.533 46.7333 128.6 58.9333 128.6 72.8C128.6 86.5333 125.533 98.7333 119.4 109.4C113.4 120.067 104.8 128.333 93.6 134.2C82.5334 140.067 69.6667 143 55 143H2.40002V2.60001H55ZM52.8 113.4C65.7334 113.4 75.8 109.867 83 102.8C90.2 95.7333 93.8 85.7333 93.8 72.8C93.8 59.8667 90.2 49.8 83 42.6C75.8 35.4 65.7334 31.8 52.8 31.8H36.6V113.4H52.8Z"  />
<path d="M252.913 85.4C252.913 88.6 252.713 91.9333 252.313 95.4H174.913C175.446 102.333 177.646 107.667 181.513 111.4C185.513 115 190.379 116.8 196.113 116.8C204.646 116.8 210.579 113.2 213.913 106H250.313C248.446 113.333 245.046 119.933 240.113 125.8C235.313 131.667 229.246 136.267 221.913 139.6C214.579 142.933 206.379 144.6 197.313 144.6C186.379 144.6 176.646 142.267 168.113 137.6C159.579 132.933 152.913 126.267 148.113 117.6C143.313 108.933 140.913 98.8 140.913 87.2C140.913 75.6 143.246 65.4667 147.913 56.8C152.713 48.1333 159.379 41.4667 167.913 36.8C176.446 32.1333 186.246 29.8 197.313 29.8C208.113 29.8 217.713 32.0667 226.113 36.6C234.513 41.1333 241.046 47.6 245.713 56C250.513 64.4 252.913 74.2 252.913 85.4ZM217.913 76.4C217.913 70.5333 215.913 65.8667 211.913 62.4C207.913 58.9333 202.913 57.2 196.913 57.2C191.179 57.2 186.313 58.8667 182.313 62.2C178.446 65.5333 176.046 70.2667 175.113 76.4H217.913Z"  />
<path d="M264.155 87.2C264.155 75.6 266.488 65.4667 271.155 56.8C275.955 48.1333 282.555 41.4667 290.955 36.8C299.488 32.1333 309.221 29.8 320.155 29.8C334.155 29.8 345.821 33.4667 355.155 40.8C364.621 48.1333 370.821 58.4667 373.755 71.8H337.355C334.288 63.2667 328.355 59 319.555 59C313.288 59 308.288 61.4667 304.555 66.4C300.821 71.2 298.955 78.1333 298.955 87.2C298.955 96.2667 300.821 103.267 304.555 108.2C308.288 113 313.288 115.4 319.555 115.4C328.355 115.4 334.288 111.133 337.355 102.6H373.755C370.821 115.667 364.621 125.933 355.155 133.4C345.688 140.867 334.021 144.6 320.155 144.6C309.221 144.6 299.488 142.267 290.955 137.6C282.555 132.933 275.955 126.267 271.155 117.6C266.488 108.933 264.155 98.8 264.155 87.2Z"  />
<path d="M426.248 50C430.248 43.8667 435.248 39.0667 441.248 35.6C447.248 32 453.915 30.2 461.248 30.2V66.4H451.848C443.315 66.4 436.915 68.2667 432.648 72C428.382 75.6 426.248 82 426.248 91.2V143H392.048V31.4H426.248V50Z"  />
<path d="M591.595 31.4L521.595 196H484.795L510.395 139.2L464.995 31.4H503.195L528.995 101.2L554.595 31.4H591.595Z"  />
<path d="M638.162 47.2C641.496 42 646.096 37.8 651.963 34.6C657.829 31.4 664.696 29.8 672.562 29.8C681.763 29.8 690.096 32.1333 697.562 36.8C705.029 41.4667 710.896 48.1333 715.162 56.8C719.562 65.4667 721.763 75.5333 721.763 87C721.763 98.4667 719.562 108.6 715.162 117.4C710.896 126.067 705.029 132.8 697.562 137.6C690.096 142.267 681.763 144.6 672.562 144.6C664.829 144.6 657.963 143 651.963 139.8C646.096 136.6 641.496 132.467 638.162 127.4V196.2H603.963V31.4H638.162V47.2ZM686.963 87C686.963 78.4667 684.563 71.8 679.763 67C675.096 62.0667 669.296 59.6 662.362 59.6C655.562 59.6 649.763 62.0667 644.963 67C640.296 71.9333 637.963 78.6667 637.963 87.2C637.963 95.7333 640.296 102.467 644.963 107.4C649.763 112.333 655.562 114.8 662.362 114.8C669.162 114.8 674.963 112.333 679.763 107.4C684.563 102.333 686.963 95.5333 686.963 87Z"  />
<path d="M801.905 114V143H784.505C772.105 143 762.438 140 755.505 134C748.571 127.867 745.105 117.933 745.105 104.2V59.8H731.505V31.4H745.105V4.2H779.305V31.4H801.705V59.8H779.305V104.6C779.305 107.933 780.105 110.333 781.705 111.8C783.305 113.267 785.971 114 789.705 114H801.905Z"  />
<path d="M55 2.60001C69.8 2.60001 82.7334 5.53333 93.8 11.4C104.867 17.2667 113.4 25.5333 119.4 36.2C125.533 46.7333 128.6 58.9333 128.6 72.8C128.6 86.5333 125.533 98.7333 119.4 109.4C113.4 120.067 104.8 128.333 93.6 134.2C82.5334 140.067 69.6667 143 55 143H2.40002V2.60001H55ZM52.8 113.4C65.7334 113.4 75.8 109.867 83 102.8C90.2 95.7333 93.8 85.7333 93.8 72.8C93.8 59.8667 90.2 49.8 83 42.6C75.8 35.4 65.7334 31.8 52.8 31.8H36.6V113.4H52.8Z" stroke="white" stroke-opacity="0.2" stroke-width="4" />
<path d="M252.913 85.4C252.913 88.6 252.713 91.9333 252.313 95.4H174.913C175.446 102.333 177.646 107.667 181.513 111.4C185.513 115 190.379 116.8 196.113 116.8C204.646 116.8 210.579 113.2 213.913 106H250.313C248.446 113.333 245.046 119.933 240.113 125.8C235.313 131.667 229.246 136.267 221.913 139.6C214.579 142.933 206.379 144.6 197.313 144.6C186.379 144.6 176.646 142.267 168.113 137.6C159.579 132.933 152.913 126.267 148.113 117.6C143.313 108.933 140.913 98.8 140.913 87.2C140.913 75.6 143.246 65.4667 147.913 56.8C152.713 48.1333 159.379 41.4667 167.913 36.8C176.446 32.1333 186.246 29.8 197.313 29.8C208.113 29.8 217.713 32.0667 226.113 36.6C234.513 41.1333 241.046 47.6 245.713 56C250.513 64.4 252.913 74.2 252.913 85.4ZM217.913 76.4C217.913 70.5333 215.913 65.8667 211.913 62.4C207.913 58.9333 202.913 57.2 196.913 57.2C191.179 57.2 186.313 58.8667 182.313 62.2C178.446 65.5333 176.046 70.2667 175.113 76.4H217.913Z" stroke="white" stroke-opacity="0.2" stroke-width="4" />
<path d="M264.155 87.2C264.155 75.6 266.488 65.4667 271.155 56.8C275.955 48.1333 282.555 41.4667 290.955 36.8C299.488 32.1333 309.221 29.8 320.155 29.8C334.155 29.8 345.821 33.4667 355.155 40.8C364.621 48.1333 370.821 58.4667 373.755 71.8H337.355C334.288 63.2667 328.355 59 319.555 59C313.288 59 308.288 61.4667 304.555 66.4C300.821 71.2 298.955 78.1333 298.955 87.2C298.955 96.2667 300.821 103.267 304.555 108.2C308.288 113 313.288 115.4 319.555 115.4C328.355 115.4 334.288 111.133 337.355 102.6H373.755C370.821 115.667 364.621 125.933 355.155 133.4C345.688 140.867 334.021 144.6 320.155 144.6C309.221 144.6 299.488 142.267 290.955 137.6C282.555 132.933 275.955 126.267 271.155 117.6C266.488 108.933 264.155 98.8 264.155 87.2Z" stroke="white" stroke-opacity="0.2" stroke-width="4" />
<path d="M426.248 50C430.248 43.8667 435.248 39.0667 441.248 35.6C447.248 32 453.915 30.2 461.248 30.2V66.4H451.848C443.315 66.4 436.915 68.2667 432.648 72C428.382 75.6 426.248 82 426.248 91.2V143H392.048V31.4H426.248V50Z" stroke="white" stroke-opacity="0.2" stroke-width="4" />
<path d="M591.595 31.4L521.595 196H484.795L510.395 139.2L464.995 31.4H503.195L528.995 101.2L554.595 31.4H591.595Z" stroke="white" stroke-opacity="0.2" stroke-width="4" />
<path d="M638.162 47.2C641.496 42 646.096 37.8 651.963 34.6C657.829 31.4 664.696 29.8 672.562 29.8C681.763 29.8 690.096 32.1333 697.562 36.8C705.029 41.4667 710.896 48.1333 715.162 56.8C719.562 65.4667 721.763 75.5333 721.763 87C721.763 98.4667 719.562 108.6 715.162 117.4C710.896 126.067 705.029 132.8 697.562 137.6C690.096 142.267 681.763 144.6 672.562 144.6C664.829 144.6 657.963 143 651.963 139.8C646.096 136.6 641.496 132.467 638.162 127.4V196.2H603.963V31.4H638.162V47.2ZM686.963 87C686.963 78.4667 684.563 71.8 679.763 67C675.096 62.0667 669.296 59.6 662.362 59.6C655.562 59.6 649.763 62.0667 644.963 67C640.296 71.9333 637.963 78.6667 637.963 87.2C637.963 95.7333 640.296 102.467 644.963 107.4C649.763 112.333 655.562 114.8 662.362 114.8C669.162 114.8 674.963 112.333 679.763 107.4C684.563 102.333 686.963 95.5333 686.963 87Z" stroke="white" stroke-opacity="0.2" stroke-width="4" />
<path d="M801.905 114V143H784.505C772.105 143 762.438 140 755.505 134C748.571 127.867 745.105 117.933 745.105 104.2V59.8H731.505V31.4H745.105V4.2H779.305V31.4H801.705V59.8H779.305V104.6C779.305 107.933 780.105 110.333 781.705 111.8C783.305 113.267 785.971 114 789.705 114H801.905Z" stroke="white" stroke-opacity="0.2" stroke-width="4" />
</svg>
