<svg viewBox="0 0 831 187" fill="none" xmlns="http://www.w3.org/2000/svg">
<mask id="path-1-outside-1" maskUnits="userSpaceOnUse" x="0.599976" y="0" width="831" height="187" fill="black">
<rect fill="white" x="0.599976" width="831" height="187"/>
<path d="M3.59998 3H67.2C82.4 3 95.8 5.93333 107.4 11.8C119.133 17.5333 128.2 25.6667 134.6 36.2C141.133 46.7333 144.4 59 144.4 73C144.4 87 141.133 99.2667 134.6 109.8C128.2 120.333 119.133 128.533 107.4 134.4C95.8 140.133 82.4 143 67.2 143H3.59998V3ZM65.6 116.4C79.6 116.4 90.7333 112.533 99 104.8C107.4 96.9333 111.6 86.3333 111.6 73C111.6 59.6667 107.4 49.1333 99 41.4C90.7333 33.5333 79.6 29.6 65.6 29.6H36V116.4H65.6Z"/>
<path d="M272.034 89.6C272.034 90 271.834 92.8 271.434 98H190.034C191.501 104.667 194.968 109.933 200.434 113.8C205.901 117.667 212.701 119.6 220.834 119.6C226.434 119.6 231.368 118.8 235.634 117.2C240.034 115.467 244.101 112.8 247.834 109.2L264.434 127.2C254.301 138.8 239.501 144.6 220.034 144.6C207.901 144.6 197.168 142.267 187.834 137.6C178.501 132.8 171.301 126.2 166.234 117.8C161.168 109.4 158.634 99.8667 158.634 89.2C158.634 78.6667 161.101 69.2 166.034 60.8C171.101 52.2667 177.968 45.6667 186.634 41C195.434 36.2 205.234 33.8 216.034 33.8C226.568 33.8 236.101 36.0667 244.634 40.6C253.168 45.1333 259.834 51.6667 264.634 60.2C269.568 68.6 272.034 78.4 272.034 89.6ZM216.234 57.4C209.168 57.4 203.234 59.4 198.434 63.4C193.634 67.4 190.701 72.8667 189.634 79.8H242.634C241.568 73 238.634 67.6 233.834 63.6C229.034 59.4667 223.168 57.4 216.234 57.4Z"/>
<path d="M344.806 144.6C333.34 144.6 323.006 142.267 313.806 137.6C304.74 132.8 297.606 126.2 292.406 117.8C287.34 109.4 284.806 99.8667 284.806 89.2C284.806 78.5333 287.34 69 292.406 60.6C297.606 52.2 304.74 45.6667 313.806 41C323.006 36.2 333.34 33.8 344.806 33.8C356.14 33.8 366.006 36.2 374.406 41C382.94 45.6667 389.14 52.4 393.006 61.2L368.806 74.2C363.206 64.3333 355.14 59.4 344.606 59.4C336.473 59.4 329.74 62.0667 324.406 67.4C319.073 72.7333 316.406 80 316.406 89.2C316.406 98.4 319.073 105.667 324.406 111C329.74 116.333 336.473 119 344.606 119C355.273 119 363.34 114.067 368.806 104.2L393.006 117.4C389.14 125.933 382.94 132.6 374.406 137.4C366.006 142.2 356.14 144.6 344.806 144.6Z"/>
<path d="M440.77 49.6C444.504 44.4 449.504 40.4667 455.77 37.8C462.17 35.1333 469.504 33.8 477.77 33.8V62.6C474.304 62.3333 471.97 62.2 470.77 62.2C461.837 62.2 454.837 64.7333 449.77 69.8C444.704 74.7333 442.17 82.2 442.17 92.2V143H410.97V35.4H440.77V49.6Z"/>
<path d="M606.833 35.4L558.233 149.6C553.299 162 547.166 170.733 539.833 175.8C532.633 180.867 523.899 183.4 513.633 183.4C508.033 183.4 502.499 182.533 497.033 180.8C491.566 179.067 487.099 176.667 483.633 173.6L495.033 151.4C497.433 153.533 500.166 155.2 503.233 156.4C506.433 157.6 509.566 158.2 512.633 158.2C516.899 158.2 520.366 157.133 523.033 155C525.7 153 528.099 149.6 530.233 144.8L530.633 143.8L484.033 35.4H516.233L546.433 108.4L576.833 35.4H606.833Z"/>
<path d="M683.164 33.8C693.164 33.8 702.231 36.1333 710.364 40.8C718.631 45.3333 725.097 51.8 729.764 60.2C734.431 68.4667 736.764 78.1333 736.764 89.2C736.764 100.267 734.431 110 729.764 118.4C725.097 126.667 718.631 133.133 710.364 137.8C702.231 142.333 693.164 144.6 683.164 144.6C669.431 144.6 658.631 140.267 650.764 131.6V181.8H619.564V35.4H649.364V47.8C657.097 38.4667 668.364 33.8 683.164 33.8ZM677.764 119C685.764 119 692.297 116.333 697.364 111C702.564 105.533 705.164 98.2667 705.164 89.2C705.164 80.1333 702.564 72.9333 697.364 67.6C692.297 62.1333 685.764 59.4 677.764 59.4C669.764 59.4 663.164 62.1333 657.964 67.6C652.897 72.9333 650.364 80.1333 650.364 89.2C650.364 98.2667 652.897 105.533 657.964 111C663.164 116.333 669.764 119 677.764 119Z"/>
<path d="M827.05 137.8C823.983 140.067 820.183 141.8 815.65 143C811.25 144.067 806.583 144.6 801.65 144.6C788.85 144.6 778.917 141.333 771.85 134.8C764.917 128.267 761.45 118.667 761.45 106V61.8H744.85V37.8H761.45V11.6H792.65V37.8H819.45V61.8H792.65V105.6C792.65 110.133 793.783 113.667 796.05 116.2C798.45 118.6 801.783 119.8 806.05 119.8C810.983 119.8 815.183 118.467 818.65 115.8L827.05 137.8Z"/>
</mask>
<path d="M3.59998 3H67.2C82.4 3 95.8 5.93333 107.4 11.8C119.133 17.5333 128.2 25.6667 134.6 36.2C141.133 46.7333 144.4 59 144.4 73C144.4 87 141.133 99.2667 134.6 109.8C128.2 120.333 119.133 128.533 107.4 134.4C95.8 140.133 82.4 143 67.2 143H3.59998V3ZM65.6 116.4C79.6 116.4 90.7333 112.533 99 104.8C107.4 96.9333 111.6 86.3333 111.6 73C111.6 59.6667 107.4 49.1333 99 41.4C90.7333 33.5333 79.6 29.6 65.6 29.6H36V116.4H65.6Z" fill="white" fill-opacity="0.2"/>
<path d="M272.034 89.6C272.034 90 271.834 92.8 271.434 98H190.034C191.501 104.667 194.968 109.933 200.434 113.8C205.901 117.667 212.701 119.6 220.834 119.6C226.434 119.6 231.368 118.8 235.634 117.2C240.034 115.467 244.101 112.8 247.834 109.2L264.434 127.2C254.301 138.8 239.501 144.6 220.034 144.6C207.901 144.6 197.168 142.267 187.834 137.6C178.501 132.8 171.301 126.2 166.234 117.8C161.168 109.4 158.634 99.8667 158.634 89.2C158.634 78.6667 161.101 69.2 166.034 60.8C171.101 52.2667 177.968 45.6667 186.634 41C195.434 36.2 205.234 33.8 216.034 33.8C226.568 33.8 236.101 36.0667 244.634 40.6C253.168 45.1333 259.834 51.6667 264.634 60.2C269.568 68.6 272.034 78.4 272.034 89.6ZM216.234 57.4C209.168 57.4 203.234 59.4 198.434 63.4C193.634 67.4 190.701 72.8667 189.634 79.8H242.634C241.568 73 238.634 67.6 233.834 63.6C229.034 59.4667 223.168 57.4 216.234 57.4Z" fill="white" fill-opacity="0.2"/>
<path d="M344.806 144.6C333.34 144.6 323.006 142.267 313.806 137.6C304.74 132.8 297.606 126.2 292.406 117.8C287.34 109.4 284.806 99.8667 284.806 89.2C284.806 78.5333 287.34 69 292.406 60.6C297.606 52.2 304.74 45.6667 313.806 41C323.006 36.2 333.34 33.8 344.806 33.8C356.14 33.8 366.006 36.2 374.406 41C382.94 45.6667 389.14 52.4 393.006 61.2L368.806 74.2C363.206 64.3333 355.14 59.4 344.606 59.4C336.473 59.4 329.74 62.0667 324.406 67.4C319.073 72.7333 316.406 80 316.406 89.2C316.406 98.4 319.073 105.667 324.406 111C329.74 116.333 336.473 119 344.606 119C355.273 119 363.34 114.067 368.806 104.2L393.006 117.4C389.14 125.933 382.94 132.6 374.406 137.4C366.006 142.2 356.14 144.6 344.806 144.6Z" fill="white" fill-opacity="0.2"/>
<path d="M440.77 49.6C444.504 44.4 449.504 40.4667 455.77 37.8C462.17 35.1333 469.504 33.8 477.77 33.8V62.6C474.304 62.3333 471.97 62.2 470.77 62.2C461.837 62.2 454.837 64.7333 449.77 69.8C444.704 74.7333 442.17 82.2 442.17 92.2V143H410.97V35.4H440.77V49.6Z" fill="white" fill-opacity="0.2"/>
<path d="M606.833 35.4L558.233 149.6C553.299 162 547.166 170.733 539.833 175.8C532.633 180.867 523.899 183.4 513.633 183.4C508.033 183.4 502.499 182.533 497.033 180.8C491.566 179.067 487.099 176.667 483.633 173.6L495.033 151.4C497.433 153.533 500.166 155.2 503.233 156.4C506.433 157.6 509.566 158.2 512.633 158.2C516.899 158.2 520.366 157.133 523.033 155C525.7 153 528.099 149.6 530.233 144.8L530.633 143.8L484.033 35.4H516.233L546.433 108.4L576.833 35.4H606.833Z" fill="white" fill-opacity="0.2"/>
<path d="M683.164 33.8C693.164 33.8 702.231 36.1333 710.364 40.8C718.631 45.3333 725.097 51.8 729.764 60.2C734.431 68.4667 736.764 78.1333 736.764 89.2C736.764 100.267 734.431 110 729.764 118.4C725.097 126.667 718.631 133.133 710.364 137.8C702.231 142.333 693.164 144.6 683.164 144.6C669.431 144.6 658.631 140.267 650.764 131.6V181.8H619.564V35.4H649.364V47.8C657.097 38.4667 668.364 33.8 683.164 33.8ZM677.764 119C685.764 119 692.297 116.333 697.364 111C702.564 105.533 705.164 98.2667 705.164 89.2C705.164 80.1333 702.564 72.9333 697.364 67.6C692.297 62.1333 685.764 59.4 677.764 59.4C669.764 59.4 663.164 62.1333 657.964 67.6C652.897 72.9333 650.364 80.1333 650.364 89.2C650.364 98.2667 652.897 105.533 657.964 111C663.164 116.333 669.764 119 677.764 119Z" fill="white" fill-opacity="0.2"/>
<path d="M827.05 137.8C823.983 140.067 820.183 141.8 815.65 143C811.25 144.067 806.583 144.6 801.65 144.6C788.85 144.6 778.917 141.333 771.85 134.8C764.917 128.267 761.45 118.667 761.45 106V61.8H744.85V37.8H761.45V11.6H792.65V37.8H819.45V61.8H792.65V105.6C792.65 110.133 793.783 113.667 796.05 116.2C798.45 118.6 801.783 119.8 806.05 119.8C810.983 119.8 815.183 118.467 818.65 115.8L827.05 137.8Z" fill="white" fill-opacity="0.2"/>
<path d="M3.59998 3H67.2C82.4 3 95.8 5.93333 107.4 11.8C119.133 17.5333 128.2 25.6667 134.6 36.2C141.133 46.7333 144.4 59 144.4 73C144.4 87 141.133 99.2667 134.6 109.8C128.2 120.333 119.133 128.533 107.4 134.4C95.8 140.133 82.4 143 67.2 143H3.59998V3ZM65.6 116.4C79.6 116.4 90.7333 112.533 99 104.8C107.4 96.9333 111.6 86.3333 111.6 73C111.6 59.6667 107.4 49.1333 99 41.4C90.7333 33.5333 79.6 29.6 65.6 29.6H36V116.4H65.6Z" stroke="white" stroke-opacity="0.2" stroke-width="6" mask="url(#path-1-outside-1)"/>
<path d="M272.034 89.6C272.034 90 271.834 92.8 271.434 98H190.034C191.501 104.667 194.968 109.933 200.434 113.8C205.901 117.667 212.701 119.6 220.834 119.6C226.434 119.6 231.368 118.8 235.634 117.2C240.034 115.467 244.101 112.8 247.834 109.2L264.434 127.2C254.301 138.8 239.501 144.6 220.034 144.6C207.901 144.6 197.168 142.267 187.834 137.6C178.501 132.8 171.301 126.2 166.234 117.8C161.168 109.4 158.634 99.8667 158.634 89.2C158.634 78.6667 161.101 69.2 166.034 60.8C171.101 52.2667 177.968 45.6667 186.634 41C195.434 36.2 205.234 33.8 216.034 33.8C226.568 33.8 236.101 36.0667 244.634 40.6C253.168 45.1333 259.834 51.6667 264.634 60.2C269.568 68.6 272.034 78.4 272.034 89.6ZM216.234 57.4C209.168 57.4 203.234 59.4 198.434 63.4C193.634 67.4 190.701 72.8667 189.634 79.8H242.634C241.568 73 238.634 67.6 233.834 63.6C229.034 59.4667 223.168 57.4 216.234 57.4Z" stroke="white" stroke-opacity="0.2" stroke-width="6" mask="url(#path-1-outside-1)"/>
<path d="M344.806 144.6C333.34 144.6 323.006 142.267 313.806 137.6C304.74 132.8 297.606 126.2 292.406 117.8C287.34 109.4 284.806 99.8667 284.806 89.2C284.806 78.5333 287.34 69 292.406 60.6C297.606 52.2 304.74 45.6667 313.806 41C323.006 36.2 333.34 33.8 344.806 33.8C356.14 33.8 366.006 36.2 374.406 41C382.94 45.6667 389.14 52.4 393.006 61.2L368.806 74.2C363.206 64.3333 355.14 59.4 344.606 59.4C336.473 59.4 329.74 62.0667 324.406 67.4C319.073 72.7333 316.406 80 316.406 89.2C316.406 98.4 319.073 105.667 324.406 111C329.74 116.333 336.473 119 344.606 119C355.273 119 363.34 114.067 368.806 104.2L393.006 117.4C389.14 125.933 382.94 132.6 374.406 137.4C366.006 142.2 356.14 144.6 344.806 144.6Z" stroke="white" stroke-opacity="0.2" stroke-width="6" mask="url(#path-1-outside-1)"/>
<path d="M440.77 49.6C444.504 44.4 449.504 40.4667 455.77 37.8C462.17 35.1333 469.504 33.8 477.77 33.8V62.6C474.304 62.3333 471.97 62.2 470.77 62.2C461.837 62.2 454.837 64.7333 449.77 69.8C444.704 74.7333 442.17 82.2 442.17 92.2V143H410.97V35.4H440.77V49.6Z" stroke="white" stroke-opacity="0.2" stroke-width="6" mask="url(#path-1-outside-1)"/>
<path d="M606.833 35.4L558.233 149.6C553.299 162 547.166 170.733 539.833 175.8C532.633 180.867 523.899 183.4 513.633 183.4C508.033 183.4 502.499 182.533 497.033 180.8C491.566 179.067 487.099 176.667 483.633 173.6L495.033 151.4C497.433 153.533 500.166 155.2 503.233 156.4C506.433 157.6 509.566 158.2 512.633 158.2C516.899 158.2 520.366 157.133 523.033 155C525.7 153 528.099 149.6 530.233 144.8L530.633 143.8L484.033 35.4H516.233L546.433 108.4L576.833 35.4H606.833Z" stroke="white" stroke-opacity="0.2" stroke-width="6" mask="url(#path-1-outside-1)"/>
<path d="M683.164 33.8C693.164 33.8 702.231 36.1333 710.364 40.8C718.631 45.3333 725.097 51.8 729.764 60.2C734.431 68.4667 736.764 78.1333 736.764 89.2C736.764 100.267 734.431 110 729.764 118.4C725.097 126.667 718.631 133.133 710.364 137.8C702.231 142.333 693.164 144.6 683.164 144.6C669.431 144.6 658.631 140.267 650.764 131.6V181.8H619.564V35.4H649.364V47.8C657.097 38.4667 668.364 33.8 683.164 33.8ZM677.764 119C685.764 119 692.297 116.333 697.364 111C702.564 105.533 705.164 98.2667 705.164 89.2C705.164 80.1333 702.564 72.9333 697.364 67.6C692.297 62.1333 685.764 59.4 677.764 59.4C669.764 59.4 663.164 62.1333 657.964 67.6C652.897 72.9333 650.364 80.1333 650.364 89.2C650.364 98.2667 652.897 105.533 657.964 111C663.164 116.333 669.764 119 677.764 119Z" stroke="white" stroke-opacity="0.2" stroke-width="6" mask="url(#path-1-outside-1)"/>
<path d="M827.05 137.8C823.983 140.067 820.183 141.8 815.65 143C811.25 144.067 806.583 144.6 801.65 144.6C788.85 144.6 778.917 141.333 771.85 134.8C764.917 128.267 761.45 118.667 761.45 106V61.8H744.85V37.8H761.45V11.6H792.65V37.8H819.45V61.8H792.65V105.6C792.65 110.133 793.783 113.667 796.05 116.2C798.45 118.6 801.783 119.8 806.05 119.8C810.983 119.8 815.183 118.467 818.65 115.8L827.05 137.8Z" stroke="white" stroke-opacity="0.2" stroke-width="6" mask="url(#path-1-outside-1)"/>
</svg>
