<svg viewBox="0 0 813 187" fill="none" xmlns="http://www.w3.org/2000/svg">
<mask id="path-1-outside-1" maskUnits="userSpaceOnUse" x="0.599976" y="0" width="813" height="187" fill="black">
<rect fill="white" x="0.599976" width="813" height="187"/>
<path d="M112 117V143H3.59998V3H109.4V29H35.8V59.4H100.8V84.6H35.8V117H112Z"/>
<path d="M200.98 33.8C214.313 33.8 225.046 37.8 233.18 45.8C241.446 53.8 245.58 65.6667 245.58 81.4V143H214.38V86.2C214.38 77.6667 212.513 71.3333 208.78 67.2C205.046 62.9333 199.646 60.8 192.58 60.8C184.713 60.8 178.446 63.2667 173.78 68.2C169.113 73 166.78 80.2 166.78 89.8V143H135.58V35.4H165.38V48C169.513 43.4667 174.646 40 180.78 37.6C186.913 35.0667 193.646 33.8 200.98 33.8Z"/>
<path d="M327.033 144.6C315.566 144.6 305.233 142.267 296.033 137.6C286.966 132.8 279.833 126.2 274.633 117.8C269.566 109.4 267.033 99.8667 267.033 89.2C267.033 78.5333 269.566 69 274.633 60.6C279.833 52.2 286.966 45.6667 296.033 41C305.233 36.2 315.566 33.8 327.033 33.8C338.366 33.8 348.233 36.2 356.633 41C365.166 45.6667 371.366 52.4 375.233 61.2L351.033 74.2C345.433 64.3333 337.366 59.4 326.833 59.4C318.699 59.4 311.966 62.0667 306.633 67.4C301.299 72.7333 298.633 80 298.633 89.2C298.633 98.4 301.299 105.667 306.633 111C311.966 116.333 318.699 119 326.833 119C337.499 119 345.566 114.067 351.033 104.2L375.233 117.4C371.366 125.933 365.166 132.6 356.633 137.4C348.233 142.2 338.366 144.6 327.033 144.6Z"/>
<path d="M422.997 49.6C426.73 44.4 431.73 40.4667 437.997 37.8C444.397 35.1333 451.73 33.8 459.997 33.8V62.6C456.53 62.3333 454.197 62.2 452.997 62.2C444.064 62.2 437.064 64.7333 431.997 69.8C426.93 74.7333 424.397 82.2 424.397 92.2V143H393.197V35.4H422.997V49.6Z"/>
<path d="M589.059 35.4L540.459 149.6C535.526 162 529.393 170.733 522.059 175.8C514.859 180.867 506.126 183.4 495.859 183.4C490.259 183.4 484.726 182.533 479.259 180.8C473.793 179.067 469.326 176.667 465.859 173.6L477.259 151.4C479.659 153.533 482.393 155.2 485.459 156.4C488.659 157.6 491.793 158.2 494.859 158.2C499.126 158.2 502.593 157.133 505.259 155C507.926 153 510.326 149.6 512.459 144.8L512.859 143.8L466.259 35.4H498.459L528.659 108.4L559.059 35.4H589.059Z"/>
<path d="M665.391 33.8C675.391 33.8 684.457 36.1333 692.591 40.8C700.857 45.3333 707.324 51.8 711.991 60.2C716.657 68.4667 718.991 78.1333 718.991 89.2C718.991 100.267 716.657 110 711.991 118.4C707.324 126.667 700.857 133.133 692.591 137.8C684.457 142.333 675.391 144.6 665.391 144.6C651.657 144.6 640.857 140.267 632.991 131.6V181.8H601.791V35.4H631.591V47.8C639.324 38.4667 650.591 33.8 665.391 33.8ZM659.991 119C667.991 119 674.524 116.333 679.591 111C684.791 105.533 687.391 98.2667 687.391 89.2C687.391 80.1333 684.791 72.9333 679.591 67.6C674.524 62.1333 667.991 59.4 659.991 59.4C651.991 59.4 645.391 62.1333 640.191 67.6C635.124 72.9333 632.591 80.1333 632.591 89.2C632.591 98.2667 635.124 105.533 640.191 111C645.391 116.333 651.991 119 659.991 119Z"/>
<path d="M809.277 137.8C806.21 140.067 802.41 141.8 797.877 143C793.477 144.067 788.81 144.6 783.877 144.6C771.077 144.6 761.143 141.333 754.077 134.8C747.143 128.267 743.677 118.667 743.677 106V61.8H727.077V37.8H743.677V11.6H774.877V37.8H801.677V61.8H774.877V105.6C774.877 110.133 776.01 113.667 778.277 116.2C780.677 118.6 784.01 119.8 788.277 119.8C793.21 119.8 797.41 118.467 800.877 115.8L809.277 137.8Z"/>
</mask>
<path d="M112 117V143H3.59998V3H109.4V29H35.8V59.4H100.8V84.6H35.8V117H112Z" fill="white" fill-opacity="0.2"/>
<path d="M200.98 33.8C214.313 33.8 225.046 37.8 233.18 45.8C241.446 53.8 245.58 65.6667 245.58 81.4V143H214.38V86.2C214.38 77.6667 212.513 71.3333 208.78 67.2C205.046 62.9333 199.646 60.8 192.58 60.8C184.713 60.8 178.446 63.2667 173.78 68.2C169.113 73 166.78 80.2 166.78 89.8V143H135.58V35.4H165.38V48C169.513 43.4667 174.646 40 180.78 37.6C186.913 35.0667 193.646 33.8 200.98 33.8Z" fill="white" fill-opacity="0.2"/>
<path d="M327.033 144.6C315.566 144.6 305.233 142.267 296.033 137.6C286.966 132.8 279.833 126.2 274.633 117.8C269.566 109.4 267.033 99.8667 267.033 89.2C267.033 78.5333 269.566 69 274.633 60.6C279.833 52.2 286.966 45.6667 296.033 41C305.233 36.2 315.566 33.8 327.033 33.8C338.366 33.8 348.233 36.2 356.633 41C365.166 45.6667 371.366 52.4 375.233 61.2L351.033 74.2C345.433 64.3333 337.366 59.4 326.833 59.4C318.699 59.4 311.966 62.0667 306.633 67.4C301.299 72.7333 298.633 80 298.633 89.2C298.633 98.4 301.299 105.667 306.633 111C311.966 116.333 318.699 119 326.833 119C337.499 119 345.566 114.067 351.033 104.2L375.233 117.4C371.366 125.933 365.166 132.6 356.633 137.4C348.233 142.2 338.366 144.6 327.033 144.6Z" fill="white" fill-opacity="0.2"/>
<path d="M422.997 49.6C426.73 44.4 431.73 40.4667 437.997 37.8C444.397 35.1333 451.73 33.8 459.997 33.8V62.6C456.53 62.3333 454.197 62.2 452.997 62.2C444.064 62.2 437.064 64.7333 431.997 69.8C426.93 74.7333 424.397 82.2 424.397 92.2V143H393.197V35.4H422.997V49.6Z" fill="white" fill-opacity="0.2"/>
<path d="M589.059 35.4L540.459 149.6C535.526 162 529.393 170.733 522.059 175.8C514.859 180.867 506.126 183.4 495.859 183.4C490.259 183.4 484.726 182.533 479.259 180.8C473.793 179.067 469.326 176.667 465.859 173.6L477.259 151.4C479.659 153.533 482.393 155.2 485.459 156.4C488.659 157.6 491.793 158.2 494.859 158.2C499.126 158.2 502.593 157.133 505.259 155C507.926 153 510.326 149.6 512.459 144.8L512.859 143.8L466.259 35.4H498.459L528.659 108.4L559.059 35.4H589.059Z" fill="white" fill-opacity="0.2"/>
<path d="M665.391 33.8C675.391 33.8 684.457 36.1333 692.591 40.8C700.857 45.3333 707.324 51.8 711.991 60.2C716.657 68.4667 718.991 78.1333 718.991 89.2C718.991 100.267 716.657 110 711.991 118.4C707.324 126.667 700.857 133.133 692.591 137.8C684.457 142.333 675.391 144.6 665.391 144.6C651.657 144.6 640.857 140.267 632.991 131.6V181.8H601.791V35.4H631.591V47.8C639.324 38.4667 650.591 33.8 665.391 33.8ZM659.991 119C667.991 119 674.524 116.333 679.591 111C684.791 105.533 687.391 98.2667 687.391 89.2C687.391 80.1333 684.791 72.9333 679.591 67.6C674.524 62.1333 667.991 59.4 659.991 59.4C651.991 59.4 645.391 62.1333 640.191 67.6C635.124 72.9333 632.591 80.1333 632.591 89.2C632.591 98.2667 635.124 105.533 640.191 111C645.391 116.333 651.991 119 659.991 119Z" fill="white" fill-opacity="0.2"/>
<path d="M809.277 137.8C806.21 140.067 802.41 141.8 797.877 143C793.477 144.067 788.81 144.6 783.877 144.6C771.077 144.6 761.143 141.333 754.077 134.8C747.143 128.267 743.677 118.667 743.677 106V61.8H727.077V37.8H743.677V11.6H774.877V37.8H801.677V61.8H774.877V105.6C774.877 110.133 776.01 113.667 778.277 116.2C780.677 118.6 784.01 119.8 788.277 119.8C793.21 119.8 797.41 118.467 800.877 115.8L809.277 137.8Z" fill="white" fill-opacity="0.2"/>
<path d="M112 117V143H3.59998V3H109.4V29H35.8V59.4H100.8V84.6H35.8V117H112Z" stroke="white" stroke-opacity="0.2" stroke-width="6" mask="url(#path-1-outside-1)"/>
<path d="M200.98 33.8C214.313 33.8 225.046 37.8 233.18 45.8C241.446 53.8 245.58 65.6667 245.58 81.4V143H214.38V86.2C214.38 77.6667 212.513 71.3333 208.78 67.2C205.046 62.9333 199.646 60.8 192.58 60.8C184.713 60.8 178.446 63.2667 173.78 68.2C169.113 73 166.78 80.2 166.78 89.8V143H135.58V35.4H165.38V48C169.513 43.4667 174.646 40 180.78 37.6C186.913 35.0667 193.646 33.8 200.98 33.8Z" stroke="white" stroke-opacity="0.2" stroke-width="6" mask="url(#path-1-outside-1)"/>
<path d="M327.033 144.6C315.566 144.6 305.233 142.267 296.033 137.6C286.966 132.8 279.833 126.2 274.633 117.8C269.566 109.4 267.033 99.8667 267.033 89.2C267.033 78.5333 269.566 69 274.633 60.6C279.833 52.2 286.966 45.6667 296.033 41C305.233 36.2 315.566 33.8 327.033 33.8C338.366 33.8 348.233 36.2 356.633 41C365.166 45.6667 371.366 52.4 375.233 61.2L351.033 74.2C345.433 64.3333 337.366 59.4 326.833 59.4C318.699 59.4 311.966 62.0667 306.633 67.4C301.299 72.7333 298.633 80 298.633 89.2C298.633 98.4 301.299 105.667 306.633 111C311.966 116.333 318.699 119 326.833 119C337.499 119 345.566 114.067 351.033 104.2L375.233 117.4C371.366 125.933 365.166 132.6 356.633 137.4C348.233 142.2 338.366 144.6 327.033 144.6Z" stroke="white" stroke-opacity="0.2" stroke-width="6" mask="url(#path-1-outside-1)"/>
<path d="M422.997 49.6C426.73 44.4 431.73 40.4667 437.997 37.8C444.397 35.1333 451.73 33.8 459.997 33.8V62.6C456.53 62.3333 454.197 62.2 452.997 62.2C444.064 62.2 437.064 64.7333 431.997 69.8C426.93 74.7333 424.397 82.2 424.397 92.2V143H393.197V35.4H422.997V49.6Z" stroke="white" stroke-opacity="0.2" stroke-width="6" mask="url(#path-1-outside-1)"/>
<path d="M589.059 35.4L540.459 149.6C535.526 162 529.393 170.733 522.059 175.8C514.859 180.867 506.126 183.4 495.859 183.4C490.259 183.4 484.726 182.533 479.259 180.8C473.793 179.067 469.326 176.667 465.859 173.6L477.259 151.4C479.659 153.533 482.393 155.2 485.459 156.4C488.659 157.6 491.793 158.2 494.859 158.2C499.126 158.2 502.593 157.133 505.259 155C507.926 153 510.326 149.6 512.459 144.8L512.859 143.8L466.259 35.4H498.459L528.659 108.4L559.059 35.4H589.059Z" stroke="white" stroke-opacity="0.2" stroke-width="6" mask="url(#path-1-outside-1)"/>
<path d="M665.391 33.8C675.391 33.8 684.457 36.1333 692.591 40.8C700.857 45.3333 707.324 51.8 711.991 60.2C716.657 68.4667 718.991 78.1333 718.991 89.2C718.991 100.267 716.657 110 711.991 118.4C707.324 126.667 700.857 133.133 692.591 137.8C684.457 142.333 675.391 144.6 665.391 144.6C651.657 144.6 640.857 140.267 632.991 131.6V181.8H601.791V35.4H631.591V47.8C639.324 38.4667 650.591 33.8 665.391 33.8ZM659.991 119C667.991 119 674.524 116.333 679.591 111C684.791 105.533 687.391 98.2667 687.391 89.2C687.391 80.1333 684.791 72.9333 679.591 67.6C674.524 62.1333 667.991 59.4 659.991 59.4C651.991 59.4 645.391 62.1333 640.191 67.6C635.124 72.9333 632.591 80.1333 632.591 89.2C632.591 98.2667 635.124 105.533 640.191 111C645.391 116.333 651.991 119 659.991 119Z" stroke="white" stroke-opacity="0.2" stroke-width="6" mask="url(#path-1-outside-1)"/>
<path d="M809.277 137.8C806.21 140.067 802.41 141.8 797.877 143C793.477 144.067 788.81 144.6 783.877 144.6C771.077 144.6 761.143 141.333 754.077 134.8C747.143 128.267 743.677 118.667 743.677 106V61.8H727.077V37.8H743.677V11.6H774.877V37.8H801.677V61.8H774.877V105.6C774.877 110.133 776.01 113.667 778.277 116.2C780.677 118.6 784.01 119.8 788.277 119.8C793.21 119.8 797.41 118.467 800.877 115.8L809.277 137.8Z" stroke="white" stroke-opacity="0.2" stroke-width="6" mask="url(#path-1-outside-1)"/>
</svg>
