<svg viewBox="0 0 781 201" fill="none" xmlns="http://www.w3.org/2000/svg">
<path d="M37.6 31V59.4H83.4V85.8H37.6V116.6H89.4V144H3.40002V3.59998H89.4V31H37.6Z"  />
<path d="M179.603 31.2C192.67 31.2 203.07 35.4666 210.803 44C218.67 52.4 222.603 64 222.603 78.8V144H188.603V83.4C188.603 75.9333 186.67 70.1333 182.803 66C178.936 61.8666 173.736 59.8 167.203 59.8C160.67 59.8 155.47 61.8666 151.603 66C147.736 70.1333 145.803 75.9333 145.803 83.4V144H111.603V32.4H145.803V47.2C149.27 42.2666 153.936 38.4 159.803 35.6C165.67 32.6666 172.27 31.2 179.603 31.2Z"  />
<path d="M239.569 88.2C239.569 76.6 241.902 66.4666 246.569 57.8C251.369 49.1333 257.969 42.4666 266.369 37.8C274.902 33.1333 284.635 30.8 295.569 30.8C309.569 30.8 321.235 34.4666 330.569 41.8C340.035 49.1333 346.235 59.4666 349.169 72.8H312.769C309.702 64.2666 303.769 60 294.969 60C288.702 60 283.702 62.4666 279.969 67.4C276.235 72.2 274.369 79.1333 274.369 88.2C274.369 97.2666 276.235 104.267 279.969 109.2C283.702 114 288.702 116.4 294.969 116.4C303.769 116.4 309.702 112.133 312.769 103.6H349.169C346.235 116.667 340.035 126.933 330.569 134.4C321.102 141.867 309.435 145.6 295.569 145.6C284.635 145.6 274.902 143.267 266.369 138.6C257.969 133.933 251.369 127.267 246.569 118.6C241.902 109.933 239.569 99.8 239.569 88.2Z"  />
<path d="M401.663 51C405.663 44.8666 410.663 40.0666 416.663 36.6C422.663 33 429.329 31.2 436.663 31.2V67.4H427.263C418.729 67.4 412.329 69.2666 408.063 73C403.796 76.6 401.663 83 401.663 92.2V144H367.463V32.4H401.663V51Z"  />
<path d="M567.009 32.4L497.009 197H460.209L485.809 140.2L440.409 32.4H478.609L504.409 102.2L530.009 32.4H567.009Z"  />
<path d="M613.577 48.2C616.91 43 621.51 38.8 627.377 35.6C633.243 32.4 640.11 30.8 647.977 30.8C657.177 30.8 665.51 33.1333 672.977 37.8C680.443 42.4666 686.31 49.1333 690.577 57.8C694.977 66.4666 697.177 76.5333 697.177 88C697.177 99.4666 694.977 109.6 690.577 118.4C686.31 127.067 680.443 133.8 672.977 138.6C665.51 143.267 657.177 145.6 647.977 145.6C640.243 145.6 633.377 144 627.377 140.8C621.51 137.6 616.91 133.467 613.577 128.4V197.2H579.377V32.4H613.577V48.2ZM662.377 88C662.377 79.4666 659.977 72.8 655.177 68C650.51 63.0666 644.71 60.6 637.777 60.6C630.977 60.6 625.177 63.0666 620.377 68C615.71 72.9333 613.377 79.6666 613.377 88.2C613.377 96.7333 615.71 103.467 620.377 108.4C625.177 113.333 630.977 115.8 637.777 115.8C644.577 115.8 650.377 113.333 655.177 108.4C659.977 103.333 662.377 96.5333 662.377 88Z"  />
<path d="M777.319 115V144H759.919C747.519 144 737.852 141 730.919 135C723.985 128.867 720.519 118.933 720.519 105.2V60.8H706.919V32.4H720.519V5.19998H754.719V32.4H777.119V60.8H754.719V105.6C754.719 108.933 755.519 111.333 757.119 112.8C758.719 114.267 761.385 115 765.119 115H777.319Z"  />
<path d="M37.6 31V59.4H83.4V85.8H37.6V116.6H89.4V144H3.40002V3.59998H89.4V31H37.6Z"  stroke-width="6" mask="url(#path-1-outside-1)"/>
<path d="M179.603 31.2C192.67 31.2 203.07 35.4666 210.803 44C218.67 52.4 222.603 64 222.603 78.8V144H188.603V83.4C188.603 75.9333 186.67 70.1333 182.803 66C178.936 61.8666 173.736 59.8 167.203 59.8C160.67 59.8 155.47 61.8666 151.603 66C147.736 70.1333 145.803 75.9333 145.803 83.4V144H111.603V32.4H145.803V47.2C149.27 42.2666 153.936 38.4 159.803 35.6C165.67 32.6666 172.27 31.2 179.603 31.2Z"  stroke-width="6" mask="url(#path-1-outside-1)"/>
<path d="M239.569 88.2C239.569 76.6 241.902 66.4666 246.569 57.8C251.369 49.1333 257.969 42.4666 266.369 37.8C274.902 33.1333 284.635 30.8 295.569 30.8C309.569 30.8 321.235 34.4666 330.569 41.8C340.035 49.1333 346.235 59.4666 349.169 72.8H312.769C309.702 64.2666 303.769 60 294.969 60C288.702 60 283.702 62.4666 279.969 67.4C276.235 72.2 274.369 79.1333 274.369 88.2C274.369 97.2666 276.235 104.267 279.969 109.2C283.702 114 288.702 116.4 294.969 116.4C303.769 116.4 309.702 112.133 312.769 103.6H349.169C346.235 116.667 340.035 126.933 330.569 134.4C321.102 141.867 309.435 145.6 295.569 145.6C284.635 145.6 274.902 143.267 266.369 138.6C257.969 133.933 251.369 127.267 246.569 118.6C241.902 109.933 239.569 99.8 239.569 88.2Z"  stroke-width="6" mask="url(#path-1-outside-1)"/>
<path d="M401.663 51C405.663 44.8666 410.663 40.0666 416.663 36.6C422.663 33 429.329 31.2 436.663 31.2V67.4H427.263C418.729 67.4 412.329 69.2666 408.063 73C403.796 76.6 401.663 83 401.663 92.2V144H367.463V32.4H401.663V51Z"  stroke-width="6" mask="url(#path-1-outside-1)"/>
<path d="M567.009 32.4L497.009 197H460.209L485.809 140.2L440.409 32.4H478.609L504.409 102.2L530.009 32.4H567.009Z"  stroke-width="6" mask="url(#path-1-outside-1)"/>
<path d="M613.577 48.2C616.91 43 621.51 38.8 627.377 35.6C633.243 32.4 640.11 30.8 647.977 30.8C657.177 30.8 665.51 33.1333 672.977 37.8C680.443 42.4666 686.31 49.1333 690.577 57.8C694.977 66.4666 697.177 76.5333 697.177 88C697.177 99.4666 694.977 109.6 690.577 118.4C686.31 127.067 680.443 133.8 672.977 138.6C665.51 143.267 657.177 145.6 647.977 145.6C640.243 145.6 633.377 144 627.377 140.8C621.51 137.6 616.91 133.467 613.577 128.4V197.2H579.377V32.4H613.577V48.2ZM662.377 88C662.377 79.4666 659.977 72.8 655.177 68C650.51 63.0666 644.71 60.6 637.777 60.6C630.977 60.6 625.177 63.0666 620.377 68C615.71 72.9333 613.377 79.6666 613.377 88.2C613.377 96.7333 615.71 103.467 620.377 108.4C625.177 113.333 630.977 115.8 637.777 115.8C644.577 115.8 650.377 113.333 655.177 108.4C659.977 103.333 662.377 96.5333 662.377 88Z"  stroke-width="6" mask="url(#path-1-outside-1)"/>
<path d="M777.319 115V144H759.919C747.519 144 737.852 141 730.919 135C723.985 128.867 720.519 118.933 720.519 105.2V60.8H706.919V32.4H720.519V5.19998H754.719V32.4H777.119V60.8H754.719V105.6C754.719 108.933 755.519 111.333 757.119 112.8C758.719 114.267 761.385 115 765.119 115H777.319Z"  stroke-width="6" mask="url(#path-1-outside-1)"/>
</svg>
