<svg  viewBox="0 0 807 181" xmlns="http://www.w3.org/2000/svg">
<path d="M109 114V140H0.600098V0H106.4V26H32.8001V56.4H97.8001V81.6H32.8001V114H109Z" />
<path d="M197.98 30.8C211.313 30.8 222.046 34.8 230.18 42.8C238.446 50.8 242.58 62.6667 242.58 78.4V140H211.38V83.2C211.38 74.6667 209.513 68.3333 205.78 64.2C202.046 59.9333 196.646 57.8 189.58 57.8C181.713 57.8 175.446 60.2667 170.78 65.2C166.113 70 163.78 77.2 163.78 86.8V140H132.58V32.4H162.38V45C166.513 40.4667 171.646 37 177.78 34.6C183.913 32.0667 190.646 30.8 197.98 30.8Z" />
<path d="M324.033 141.6C312.566 141.6 302.233 139.267 293.033 134.6C283.966 129.8 276.833 123.2 271.633 114.8C266.566 106.4 264.033 96.8667 264.033 86.2C264.033 75.5333 266.566 66 271.633 57.6C276.833 49.2 283.966 42.6667 293.033 38C302.233 33.2 312.566 30.8 324.033 30.8C335.366 30.8 345.233 33.2 353.633 38C362.166 42.6667 368.366 49.4 372.233 58.2L348.033 71.2C342.433 61.3333 334.366 56.4 323.833 56.4C315.7 56.4 308.966 59.0667 303.633 64.4C298.3 69.7333 295.633 77 295.633 86.2C295.633 95.4 298.3 102.667 303.633 108C308.966 113.333 315.7 116 323.833 116C334.5 116 342.566 111.067 348.033 101.2L372.233 114.4C368.366 122.933 362.166 129.6 353.633 134.4C345.233 139.2 335.366 141.6 324.033 141.6Z" />
<path d="M419.997 46.6C423.73 41.4 428.73 37.4667 434.997 34.8C441.397 32.1333 448.73 30.8 456.997 30.8V59.6C453.53 59.3333 451.197 59.2 449.997 59.2C441.064 59.2 434.064 61.7333 428.997 66.8C423.93 71.7333 421.397 79.2 421.397 89.2V140H390.197V32.4H419.997V46.6Z" />
<path d="M586.059 32.4L537.459 146.6C532.526 159 526.393 167.733 519.059 172.8C511.859 177.867 503.126 180.4 492.859 180.4C487.259 180.4 481.726 179.533 476.259 177.8C470.793 176.067 466.326 173.667 462.859 170.6L474.259 148.4C476.659 150.533 479.393 152.2 482.459 153.4C485.659 154.6 488.793 155.2 491.859 155.2C496.126 155.2 499.593 154.133 502.259 152C504.926 150 507.326 146.6 509.459 141.8L509.859 140.8L463.259 32.4H495.459L525.659 105.4L556.059 32.4H586.059Z" />
<path d="M662.391 30.8C672.391 30.8 681.457 33.1333 689.591 37.8C697.857 42.3333 704.324 48.8 708.991 57.2C713.657 65.4667 715.991 75.1333 715.991 86.2C715.991 97.2667 713.657 107 708.991 115.4C704.324 123.667 697.857 130.133 689.591 134.8C681.457 139.333 672.391 141.6 662.391 141.6C648.657 141.6 637.857 137.267 629.991 128.6V178.8H598.791V32.4H628.591V44.8C636.324 35.4667 647.591 30.8 662.391 30.8ZM656.991 116C664.991 116 671.524 113.333 676.591 108C681.791 102.533 684.391 95.2667 684.391 86.2C684.391 77.1333 681.791 69.9333 676.591 64.6C671.524 59.1333 664.991 56.4 656.991 56.4C648.991 56.4 642.391 59.1333 637.191 64.6C632.124 69.9333 629.591 77.1333 629.591 86.2C629.591 95.2667 632.124 102.533 637.191 108C642.391 113.333 648.991 116 656.991 116Z" />
<path d="M806.277 134.8C803.21 137.067 799.41 138.8 794.877 140C790.477 141.067 785.81 141.6 780.877 141.6C768.077 141.6 758.143 138.333 751.077 131.8C744.143 125.267 740.677 115.667 740.677 103V58.8H724.077V34.8H740.677V8.60001H771.877V34.8H798.677V58.8H771.877V102.6C771.877 107.133 773.01 110.667 775.277 113.2C777.677 115.6 781.01 116.8 785.277 116.8C790.21 116.8 794.41 115.467 797.877 112.8L806.277 134.8Z" />
</svg>
